# xmcd CD database file
#
# Track frame offsets:
#	150
#	22555
#	43681
#	63241
#	77223
#	96754
#	120003
#	137263
#	147087
#	169470
#	192477
#	216228
#	235810
#
# Disc length: 3421 seconds
#
# Revision: 0
# Processed by: cddbd v1.5.1PL0 Copyright (c) Steve Scherf et al.
# Submitted via: CDex 1.51
#
DISCID=a50d5b0d
DTITLE=布袋寅泰 - Monster Drive
DYEAR=2005
DGENRE=Rock
TTITLE0=Monster Drive
TTITLE1=Identity(Album Mix)
TTITLE2=Party King
TTITLE3=Chase!!!
TTITLE4=Barbarella
TTITLE5=Bitch
TTITLE6=火の玉Boogie
TTITLE7=Finger Skippin' Jive
TTITLE8=Liberty Wings(Album Mix)
TTITLE9=月光ピエロ
TTITLE10=永遠の花
TTITLE11=Mirror Ball
TTITLE12=Pussy Cat
EXTD=YEAR: 2005
EXTT0=
EXTT1=
EXTT2=
EXTT3=
EXTT4=
EXTT5=
EXTT6=
EXTT7=
EXTT8=
EXTT9=
EXTT10=
EXTT11=
EXTT12=
PLAYORDER=
